<svg xmlns="http://www.w3.org/2000/svg" enable-background="new 0 0 47.5 47.5" viewBox="0 0 47.5 47.5" id="video"><defs><clipPath id="a"><path d="M0 38h38V0H0v38Z"></path></clipPath></defs><g clip-path="url(#a)" transform="matrix(1.25 0 0 -1.25 0 47.5)"><path fill="#58595b" d="M0 0a7 7 0 1 0-14.001.001A7 7 0 0 0 0 0" transform="translate(25 26)"></path><path fill="#58595b" d="M0 0a6 6 0 0 0-12 0A6 6 0 0 0 0 0" transform="translate(34.999 23)"></path><path fill="#939598" d="M0 0a5 5 0 1 0-10.001.001A5 5 0 0 0 0 0" transform="translate(23 26)"></path><path fill="#bcbec0" d="M0 0c0-1.104-1-2-2-2s-2 .896-2 2a2 2 0 0 0 4 0" transform="translate(20 26)"></path><path fill="#58595b" d="M0 0a4 4 0 0 0-4-4h-13a4 4 0 0 0-4 4v8a4 4 0 0 0 4 4h13a4 4 0 0 0 4-4V0Z" transform="translate(31 8)"></path><path fill="#58595b" d="M24 19h-3v3h3v-3z"></path><path fill="#939598" d="M0 0a4 4 0 1 0-8 0 4 4 0 0 0 8 0" transform="translate(32.999 23)"></path><path fill="#bcbec0" d="M0 0a2 2 0 1 0-4.001.001A2 2 0 0 0 0 0" transform="translate(30.999 23)"></path><path fill="#58595b" d="M0 0h-2l-6 4h-1v-14h1l6 4h2a3 3 0 1 1 0 6" transform="translate(11 16)"></path><path fill="#58595b" d="M0 0v-1h-5a2 2 0 0 1 0-4h5v-1h3v6H0z" transform="translate(33 16)"></path><path fill="#808285" d="M28 7H18v10h10V7Z"></path><path fill="#58595b" d="M26 9h-6v6h6V9z"></path><path fill="#808285" d="M0 0a2 2 0 1 0-4.001.001A2 2 0 0 0 0 0" transform="translate(15.999 9)"></path></g></svg>